<svg id="Layer_1" data-name="Layer 1" xmlns="http://www.w3.org/2000/svg" viewBox="0 0 512 512"><title>rising-sun-pinetrees-flat</title><path d="M55,9.14H457a55,55,0,0,1,55,55V447.88a55,55,0,0,1-55,55H55a55,55,0,0,1-55-55V64.12a55,55,0,0,1,55-55Z" transform="translate(512) rotate(90)" fill="#e6d6a6"/><rect x="20.23" y="11.1" width="471.53" height="489.81" rx="43.89" ry="43.89" fill="#e48034"/><polygon points="193.36 224.71 180.29 231.19 167.21 237.68 181.79 238.45 195.09 239.16 196.06 237.78 194.86 231.97 193.36 224.71" fill="#eedaa6"/><polygon points="318.64 214.38 331.72 207.9 344.78 201.4 330.21 200.64 315.64 199.86 317.14 207.12 318.64 214.38" fill="#eedaa6"/><polygon points="331.8 230.47 318.63 224.18 317.24 231.46 315.84 238.75 319.37 238.51 319.45 238.38 319.53 238.49 330.41 237.75 344.97 236.76 331.8 230.47" fill="#eedaa6"/><polygon points="307.73 184.67 311.9 190.8 321.5 179.81 331.08 168.81 317.32 173.67 303.56 178.53 307.73 184.67" fill="#eedaa6"/><polygon points="194.23 174.24 180.39 169.59 190.15 180.44 199.91 191.29 203.98 185.09 208.06 178.89 194.23 174.24" fill="#eedaa6"/><polygon points="214.99 171.97 221.13 167.81 227.26 163.65 216.26 154.05 205.27 144.46 210.13 158.21 214.99 171.97" fill="#eedaa6"/><polygon points="167.03 202.32 180.2 208.62 193.37 214.91 194.76 207.62 196.16 200.33 181.6 201.33 167.03 202.32" fill="#eedaa6"/><polygon points="250.84 156.9 244.35 143.83 237.86 130.76 237.09 145.33 236.31 159.9 243.58 158.4 250.84 156.9" fill="#eedaa6"/><polygon points="275.2 159.69 274.21 145.13 273.22 130.57 266.93 143.74 260.63 156.91 267.92 158.3 275.2 159.69" fill="#eedaa6"/><polygon points="296.65 171.6 301.3 157.76 305.95 143.94 295.1 153.7 284.25 163.44 290.45 167.52 296.65 171.6" fill="#eedaa6"/><path d="M265.77,170a51,51,0,0,0-44,87.84L256,203.88,290.36,258a51,51,0,0,0-24.59-88Z" fill="#eedaa6"/><path d="M351.54,341.28h16.62l-27.65-41.76h12.87L319.3,248l-17,25.66,6.44,10.15H295.59l-1.2,1.8,32.17,50.66h-20l28.64,45.11h42.94Z" fill="#eedaa6"/><path d="M207.25,283.85l8.27-13-18.1-25.9L160.6,297.61h13.89l-29.86,42.73h18l-28.71,41.09h46.94l28.64-45.11h-20l33.3-52.47Z" fill="#eedaa6"/><polygon points="326.86 381.43 294.84 330.98 314.87 330.98 281.56 278.52 297.06 278.52 256 213.83 214.94 278.52 230.44 278.52 197.14 330.98 217.16 330.98 185.13 381.43 326.86 381.43" fill="#eedaa6"/></svg>