<svg id="Layer_1" data-name="Layer 1" xmlns="http://www.w3.org/2000/svg" viewBox="0 0 512 512"><title>binoculars-flat</title><path d="M55,9.14H457a55,55,0,0,1,55,55V447.87a55,55,0,0,1-55,55H55a55,55,0,0,1-55-55V64.13a55,55,0,0,1,55-55Z" transform="translate(512) rotate(90)" fill="#e6d6a6"/><rect x="20.24" y="11.1" width="471.53" height="489.81" rx="43.89" ry="43.89" fill="#b94355"/><path d="M143,324.44h90.4l3.48-134.06a6.33,6.33,0,0,1,.92-3.22H163.9Z" fill="#eedaa6"/><path d="M272.44,187.17a6.33,6.33,0,0,1,.92,3.22l5.22,134.06H369L346.36,187.17Z" fill="#eedaa6"/><path d="M268.14,322.7c0,1.69-3.12,3.06-7,3.06H250.82c-3.84,0-7-1.37-7-3.06l3.48-95.33c0-1.69,3.12-3.06,7-3.06H256c3.84,0,7,1.37,7,3.06Z" fill="#eedaa6"/><path d="M372.32,337.11A8.81,8.81,0,0,0,364,330.2H279.9a6.68,6.68,0,0,0-6.72,7l.6,13.67a7.44,7.44,0,0,0,7.34,7h88a5.64,5.64,0,0,0,5.74-6.91Z" fill="#eedaa6"/><path d="M137,351a5.74,5.74,0,0,0,5.84,6.93h88a7.3,7.3,0,0,0,7.23-7l.4-13.67a6.8,6.8,0,0,0-6.82-7H147.59a8.66,8.66,0,0,0-8.22,6.93Z" fill="#eedaa6"/><path d="M178.34,171.91a6.14,6.14,0,0,0,6.23,7h44.25a7.24,7.24,0,0,0,7.18-7l.15-7.52c.08-3.87.2-7.54.27-8.15s-2.6-2.11-6.47-2.11H187.46a8.13,8.13,0,0,0-7.86,7Z" fill="#eedaa6"/><path d="M332.4,161.08a8.13,8.13,0,0,0-7.86-7H282c-3.87,0-6.88.47-6.69,1a89.9,89.9,0,0,1,.49,9.22l.15,7.52a7.24,7.24,0,0,0,7.18,7h44.24a6.14,6.14,0,0,0,6.23-7Z" fill="#eedaa6"/></svg>