<svg id="Layer_1" data-name="Layer 1" xmlns="http://www.w3.org/2000/svg" viewBox="0 0 512 512"><title>pine-trees-forest-sun-handdrawn</title><path d="M128.71,190.13s3.52,2,3.51,2c-.11.18-3.46-2.22-3.6-2,0,0,3.64,2.06,3.62,2.09-.19.33-7.72-.39-8,.08-.11.2,9.25,5,9.1,5.25-.24.41-11-4.76-11.43-4.1s12.19,6.63,12,6.94-7.76.91-8,1.24c-.29.5,4.89,2,4.53,2.61s-8.72-2-9-1.54c-.42.73,4.48,1,3.8,2.19-.32.55-12-5.59-12.3-5.08-.84,1.45,23,11.67,22.34,12.9s-23.85-14.58-24.64-13.21,16,8.14,15.54,9c-.25.43-14.33-7.89-14.66-7.31-.68,1.18,9.63,3.28,8.64,5-.2.35-5.94-2.59-6.09-2.33-.7,1.22,15.3,7,14.49,8.37-.65,1.13-17.83-9.61-18.21-8.94-1.08,1.88,14.42,5.94,13.39,7.73-.14.24-4.71-.26-4.83-.05-.58,1,8,3.46,7.47,4.31-.85,1.48-23.24-13.2-24.15-11.62-.61,1.06,15.77,7.32,15,8.66-.48.83-13.43-7.16-13.81-6.51-.77,1.33,20.17,10.31,19.59,11.31-.46.79-14.25-7.74-14.56-7.2-.42.73,9.28,3.4,8.44,4.87-.18.31-9.59-4.55-9.8-4.19-.57,1,7.63,3,7,4-.31.54-11.35-2.29-11.68-1.72-.44.75,2.65.24,2.09,1.21-.22.38-6.18,0-6.32.24-.51.88,1.43,0,1.08.62-.49.85-16.31-2.55-16.6-2-.15.26,9.36,4.87,9.12,5.27-.46.8-13.14-3.87-13.63-3,0,.06,4.45,2.46,4.41,2.54-.14.25-5.21-2.3-5.34-2.08,0,0,3.44,2,3.43,2" fill="none" stroke="#999" stroke-linecap="round" stroke-linejoin="round" stroke-width="1.4"/><path d="M433.14,142.87s3.44,2,3.43,2c-.11.18-3.47-2.23-3.61-2,0,0,3.54,2,3.52,2-.3.53-12-3.26-12.47-2.5-.09.16,8.23,4.46,8.1,4.68-.27.46-12.43-5.68-12.86-4.93-.25.43,10.68,5.83,10.54,6.08-.25.44-11.86-1.68-12.15-1.19s2.23.59,1.93,1.11-9.66-2.66-10-2.1,1.06-.69.49.28c-.28.49-10.7-4.76-11-4.31-.7,1.21,19.24,9.74,18.65,10.77s-21.24-12.87-21.94-11.65,12,6,11.65,6.73c-.2.35-11.64-6.19-11.91-5.72-.57,1,5.36,1.19,4.54,2.62-.1.17-3.07-.76-3.14-.63-.59,1,10.83,4.7,10.16,5.87-.55,1-15.1-7.89-15.42-7.33-.93,1.62,10.47,4,9.58,5.53-.11.18-3.61.44-3.7.6-.53.92,5.66,2.22,5.21,3-.85,1.48-23.26-13.21-24.17-11.63-.67,1.15,18.15,8.54,17.31,10-.61,1-16.88-9.39-17.36-8.56-.92,1.6,25.28,13,24.58,14.19-.33.57-10.37-5.3-10.59-4.91-.5.87,5.2.65,4.18,2.41,0,.07-2.34,0-2.39.09-.69,1.2,4.3.75,3.55,2-.36.63-13.11-3.44-13.5-2.77-.52.91,1.64-.59,1,.56-.17.3,1.72,4.62,1.6,4.82-.61,1.06,4.22,1.45,3.79,2.19-.31.54-10.32,1.15-10.51,1.48s10.71,5.53,10.43,6-9-1.09-9.3-.53c0,.08,4.88,2.67,4.81,2.78s-4.44-1.68-4.55-1.5c0,0,3.51,2,3.5,2" fill="none" stroke="#999" stroke-linecap="round" stroke-linejoin="round" stroke-width="1.4"/><path d="M430.23,212.07c-.07.12,6.6,3.5,6.46,3.73-.22.38-7.15-4.71-7.45-4.2-.08.14,7.43,4,7.29,4.21-1.16,2-42.1-23.43-43.75-20.56-.82,1.43,35.44,18,34.36,19.84-.75,1.31-33.47-19.66-34.7-17.54-1.37,2.37,17.65,8.33,16.84,9.72-.42.74-19.11-6.31-19.59-5.48-.61,1.06,22.63,11.32,21.87,12.63-.85,1.47-22.74-11.32-23.54-9.93-.59,1,12.74,5.17,11.79,6.81-.5.86-18.29-9.6-18.74-8.81-.94,1.64,26,13.16,25.19,14.54s-25.85-15.9-26.71-14.41,16.28,8.29,15.8,9.12c-.24.41-13.72-7.5-14-6.95-.61,1.05,6.84,1.91,6,3.44-.08.13-2.44-.36-2.5-.26-.55,1,9.43,4,8.8,5.08-.4.69-11.09-5.37-11.32-5-.73,1.27,5.21,1.4,4.51,2.61-.26.44-8.56-2.73-8.79-2.34s18,9.82,17.77,10.26c-.62,1.07-17.12-9.09-17.78-7.94-.27.47.67-.4.33.19-.1.18,2.06,2.47,2,2.61-.3.51,4.57,2.12,4.34,2.51s-7.35-3.4-7.5-3.13,11.2,5.81,10.92,6.3-10.93-5.39-11.17-5,9,4.82,8.84,5.11c-.25.44-9.25-2-9.52-1.54,0,0,3.59,2,3.57,2.06" fill="none" stroke="#999" stroke-linecap="round" stroke-linejoin="round" stroke-width="1.4"/><path d="M405.94,77.53s3.24,1.85,3.23,1.87c-.1.17-3.21-2.06-3.34-1.83,0,0,3.29,1.88,3.28,1.9-.2.34-8-.61-8.33-.11,0,.08,5.67,3.13,5.61,3.24-.17.29-8-2.76-8.3-2.29-.13.22,6.92,3.82,6.85,4-.28.48-12.8-2.28-13.11-1.74-.12.21,9.88,5.35,9.73,5.62-.47.82-13.22-5-13.67-4.23-.18.31,11.83,6.17,11.54,6.66s-11.62-5.35-11.9-4.86,9.72,4.92,9.42,5.44-11.5-6.49-11.87-5.84,2.14.77,1.94,1.12c-.06.1-3.55-1.07-3.63-.94-.29.5,14,7.14,13.62,7.86-.51.89-14.51-8.08-14.89-7.41s14.55,7.61,14.2,8.2c-.57,1-15.56-8.19-15.9-7.6-.47.82,15.43,7.87,15,8.65-.55,1-17.44-8.46-17.93-7.61-.27.47,16.57,9,16.34,9.43-.64,1.11-17.76-9.52-18.45-8.32-.34.58,3.67,1.13,3.24,1.87-.07.12-2.2.07-2.26.16-.47.82,10.34,5.15,10,5.77-.15.26-5-1.94-5.13-1.76-.28.48,1.17-.63.61.35,0,.06-2.14.13-2.18.21-.43.74,1.8,0,1.33.77-.18.31-6.54.81-6.73,1.14-.48.83,4.44,1.15,3.83,2.21-.3.52-8.42-1.43-8.62-1.08-.79,1.37,9.11,4,8.56,4.94-.36.62-12,.13-12.19.51-.62,1.07,3-.43,2.07,1.19-.15.26-3.42,2.5-3.57,2.77-.5.86,5.06,1.32,4.36,2.52-.17.29-5.17,3.84-5.32,4.1s10.45,5.65,10.29,5.94-7.52-2.39-7.68-2.11,6.47,3.45,6.34,3.66-4.45-1.39-4.61-1.12c0,0,3.74,2.11,3.72,2.15" fill="none" stroke="#999" stroke-linecap="round" stroke-linejoin="round" stroke-width="1.4"/><path d="M156.94,97c0,.05,4.58,2.51,4.52,2.61-.14.25-4.73-3.08-4.93-2.75,0,.06,4.94,2.71,4.88,2.82-.34.58-13.24-4.06-13.72-3.23-.36.62,9.83,4.6,9.36,5.41s-18.45-9.68-19.11-8.53c-.94,1.63,4.48,1.31,3.93,2.27S114,83.63,113.28,84.88c-.89,1.54,38.22,19.52,37.12,21.43S120.15,90,119.07,91.88c-.83,1.45,24.85,11.25,23.51,13.57-.71,1.23-25.71-14.33-26.36-13.2-1.31,2.27,36.08,18.28,35,20.2-1,1.68-33.33-20.79-34.44-18.87s25.27,13.07,24.61,14.21c-.35.61-20-11.49-20.5-10.68-.82,1.41,14.84,5.83,13.66,7.88-.26.45-7.59-3.65-7.79-3.31-.73,1.26,16.19,7.42,15.35,8.86-.52.9-14.35-7.42-14.66-6.89-.93,1.61,10.43,4,9.54,5.51-.09.16,1,3.1.88,3.24-.35.6,2.24.61,1.95,1.12-.2.35-6.08-1.69-6.3-1.31s.79-.34.45.26c-.2.35,5,4,4.85,4.27-.26.44,3.24,1.42,3,1.76s-3.67-1.08-3.74-1,8.65,4.54,8.45,4.88c-.1.17-5.6-2-5.71-1.83s5.08,2.8,5,2.9-4.06-2.2-4.19-2c0,0,4,2.25,4,2.3" fill="none" stroke="#999" stroke-linecap="round" stroke-linejoin="round" stroke-width="1.4"/><path d="M153.57,28.92s4.27,2.36,4.23,2.44-4-2.6-4.18-2.32c0,0,4.56,2.52,4.52,2.61-.3.52,8.65,8.7,8.22,9.45-.29.5,6,2.58,5.59,3.23-.12.21-5.84-1.32-6-1-.76,1.31,8.09,3.64,7.64,4.41-.12.2-4.53,2.91-4.67,3.13-.69,1.2,27.05,13.65,26.2,15.13s-24.76-12.67-25.64-11.14c-.69,1.2,17.76,7.69,16.65,9.61-.6,1-21.82-11.86-22.37-10.9-1.14,2,31.29,15.85,30.33,17.51s-30.23-18.76-31.24-17,21.67,11.15,21.08,12.17c-.32.55-18.19-10.33-18.62-9.59-.76,1.31,12.5,4.68,11.4,6.58-.24.42-7-3.29-7.22-3-.7,1.22,15.2,6.92,14.39,8.31-.57,1-15.61-8.22-15.95-7.63-1,1.67,11.23,4.37,10.32,6-.11.19-3.7.38-3.8.54-.42.73,6.09,2.68,5.73,3.31-.46.8-12.91-6.26-13.4-5.41s7.33,3,6.8,3.93c-.11.2-3.5-.76-3.59-.61-.5.87,11.4,5.7,11,6.36s-13.15-7-13.43-6.55,18.29,9.34,17.76,10.25c-.32.55-16.74-9.05-17.11-8.41s16.32,8.58,16,9.21-13.33-3.58-13.72-2.9c-.17.29,10,5.26,9.77,5.64s-7.85-1.07-8-.74c-.07.13,5,2.78,5,2.87s-4.37-1.55-4.45-1.4,3.55,2,3.53,2" fill="none" stroke="#999" stroke-linecap="round" stroke-linejoin="round" stroke-width="1.4"/><path d="M134,140.83s3.61,2,3.59,2.07c-.11.19-3.6-2.32-3.74-2.06,0,0,3.75,2.11,3.73,2.15-.27.46-10.62-2.31-11-1.65-.13.23,10.37,5.58,10.19,5.89-.29.51-13.59-6.45-14.06-5.62-.35.61,13.84,7.51,13.63,7.87s-12.86-2.32-13.17-1.77,7.79,3.52,7.37,4.25-13.64-5.29-14.11-4.48,8.21,2.89,7.41,4.28c-.45.78-16.73-8.61-17.15-7.89-1,1.71,27.22,13.78,26.38,15.23s-28.37-17.54-29.31-15.91,20.36,10.45,19.8,11.43c-.34.58-19.19-11-19.64-10.18-.8,1.39,14.32,5.57,13.15,7.59-.39.67-11-5.86-11.33-5.36-.83,1.44,20.21,9.47,19.26,11.12s-23.44-13.15-24-12.25c-1.32,2.28,20.57,9,19.32,11.15-.37.65-12.13-5-12.46-4.45-.75,1.3,16.7,8.16,16.06,9.27-1.22,2.11-32.87-19.68-34.19-17.41-.94,1.63,30.29,14.75,29.1,16.8-1,1.77-28-16.57-28.81-15.17-1.31,2.27,38.14,19.74,37.15,21.45-.81,1.4-24.78-14.37-25.33-13.42-.78,1.35,21.41,8.72,19.84,11.45-.39.67-20.22-11.25-20.67-10.47-.93,1.6,13.6,5.54,12.6,7.27s-35.42-19.26-36.55-17.31c-.09.15,6.58,3.55,6.47,3.74" fill="none" stroke="#999" stroke-linecap="round" stroke-linejoin="round" stroke-width="1.4"/><path d="M218.9,1.25s3.35,1.91,3.34,1.93S219,1.12,218.89,1.34c0,0,3.42,1.95,3.41,2-.11.19-3.5,2.32-3.65,2.59s7,3.83,6.92,4-6.82-2-7.05-1.57,8.9,4.88,8.79,5.08-8.88.21-9.09.58,13.38,7.19,13.15,7.59c-.46.8-12.9-4.8-13.34-4-.27.47,16.32,8.42,15.89,9.18s-13.85-6.77-14.19-6.18c-.54.93,14.74,7.46,14.29,8.25s-15.2-8.91-15.7-8,7.37,3.55,7.07,4.08c0,.07,1.58,1.95,1.52,2-.44.76,1.49-.61.85.49-.13.22-3.86-1.27-4-1.1-.45.78,5.58,2,5.06,2.92-.25.44-7.25-3-7.4-2.69-.72,1.24,4.82,1.21,4.14,2.39-.1.17,1.11,3.18,1,3.33-.41.71,5.38,2.3,5,2.9-.48.82-13.35-6.56-13.86-5.67s11.4,5.09,10.75,6.21c-.28.48-8-3.69-8.27-3.31-.72,1.24,18.43,9.39,17.89,10.33-.37.64-11.55-6-11.8-5.61-.43.74,9.69,3.61,8.83,5.1,0,0,.1,1.45.07,1.51-.65,1.13,2.72-.06,2,1.16-.36.63-13.08-3.42-13.47-2.75-.67,1.16,7.54,2.38,6.69,3.86-.18.32-5.15.64-5.27.85-.82,1.42,9.88,4.39,9.31,5.38s-17.87-3.53-18.2-3,16,8.13,15.51,9-15.19-5.24-15.76-4.26c-.17.29,9.89,5.17,9.66,5.57s-9.7-1-9.92-.66c0,0,3.53,2,3.52,2" fill="none" stroke="#999" stroke-linecap="round" stroke-linejoin="round" stroke-width="1.4"/><path d="M289.87.8s3.22,1.84,3.21,1.86c-.1.16-3.12-2-3.25-1.78,0,0,3.26,1.87,3.26,1.88-.13.22-4.83,1.49-5,1.8,0,.07,5.4,3,5.35,3.09s-6.08-1.48-6.28-1.13c-.11.2,6.53,3.61,6.46,3.73-.18.31-8.44.49-8.64.84-.11.19,9.19,5,9.05,5.23-.35.61-10.09-2.94-10.42-2.36-.16.28,10.94,5.72,10.68,6.17s-9.4-3.94-9.63-3.54c-.32.55,8.73,4.42,8.46,4.89S283.22,16,282.9,16.6s1.11.22.92.53c0,0-1.77.05-1.81.12-.26.45,12.92,6.59,12.55,7.24s-12.66-6.89-13-6.32,13.38,7,13.07,7.55c-.49.84-13.38-6.81-13.66-6.31-.43.74,14.18,7.25,13.78,8s-14.4-6.5-14.8-5.81c-.24.42,15.2,8.3,15,8.66-.54.93-14.9-7.6-15.48-6.6-.3.53,2.17.37,1.79,1-.05.09.26,1.53.22,1.59-.42.73,8.79,4.34,8.47,4.89S278.34,25,278.09,25.48s17.75,9.07,17.24,10C295,36,277.92,26,277.54,26.62s18.32,9.61,17.9,10.34c-.28.49-10.38-1.67-10.68-1.15-.43.75,2.52.18,2,1.13-.15.26-3.93,1.4-4,1.57-.71,1.24,7,2.9,6.52,3.76-.27.46-8.58,2.22-8.74,2.5-.56,1,8,2.65,7.13,4.12-.3.51-8.63-.86-8.94-.33-.62,1.08,10.18,3.87,9.31,5.38-.55.95-20.63-5.84-21.1-5-.23.4,15,8.07,14.78,8.54s-15.31-7.3-15.66-6.71c-.2.35,10,5.2,9.77,5.64S265.35,52.22,265,52.89c0,.05,3.93,2.21,3.91,2.26" fill="none" stroke="#999" stroke-linecap="round" stroke-linejoin="round" stroke-width="1.4"/><path d="M355.56,27.61s3.2,1.83,3.19,1.84c-.1.17-3.13-2-3.26-1.78,0,0,3.24,1.86,3.23,1.87-.16.27-6.19.61-6.41,1,0,.07,5.14,2.85,5.09,2.94s-6.56-1.79-6.78-1.42c-.1.18,6.14,3.41,6.08,3.51-.21.36-9.79-.37-10,0-.1.17,8.5,4.63,8.38,4.84-.37.64-10.51-3.22-10.86-2.61-.14.25,10.06,5.28,9.83,5.67s-9.17-3.79-9.39-3.4,7.75,3.92,7.51,4.33-9.69-5.3-10-4.76,11.19,6.09,11,6.37-11.54-6.12-11.81-5.66,11.82,6.05,11.48,6.63-12-6.45-12.29-5.91,12.23,6.43,12,6.9c-.46.8-12.75-6.42-13-5.94-.38.65,12.94,6.64,12.58,7.26s-14-6.27-14.43-5.59c-.22.37,13.84,7.57,13.66,7.89-.51.89-14.29-7.19-14.84-6.24-.27.47.67-.4.33.19-.08.14,1.3,2.07,1.24,2.18-.38.65,7.22,3.51,6.93,4s-10.47-5.36-10.7-5,16.09,8.24,15.63,9c-.31.53-16.27-8.76-16.63-8.14s16.59,8.72,16.22,9.36c-.28.48-10.22-1.56-10.52-1.05-.38.66.51-.84,0,0-.13.23-3.18,1.86-3.27,2-.63,1.1,4.81,1.76,4.37,2.52-.27.47-8.72,2.14-8.88,2.42-.49.86,5.35,1.35,4.6,2.65-.26.45-7.6-.18-7.88.29-.55,1,7.3,2.44,6.53,3.77-.29.5-11.14.16-11.39.59-.49.85,10,4.46,9.4,5.43-.22.38-11.45-4.86-11.7-4.43-.75,1.31,17.05,7.66,16.11,9.3-.09.15-4.35-1.45-4.5-1.18s8.33,4.42,8.16,4.71" fill="none" stroke="#999" stroke-linecap="round" stroke-linejoin="round" stroke-width="1.4"/><path d="M256.1,148.45c-1.74,3,94.63,46.66,91.18,52.64-1.8,3.13-81-52-84-46.7-3.45,6,96.72,50.86,94.56,54.6-2.28,3.95-75.47-44.35-78.08-39.82-3.47,6,64.06,30.39,61.2,35.34-1.76,3-62.74-36.08-64.45-33.12-1.59,2.76,67.11,32.2,64.28,37.11-1.6,2.77-61.78-35.93-63.34-33.22-1.65,2.87,62.48,32.57,61,35.2-1.94,3.36-49.63-24.81-51.34-21.85-1.51,2.61,58.81,27.78,56.13,32.41-1.21,2.1-58.52-33.39-59.77-31.22s62,32.33,60.49,34.92c-1.36,2.35-56.67-33-58-30.64-1.27,2.2,53.27,27.41,51.82,29.92-1.1,1.9-48.16-27.41-49.24-25.54-1.45,2.52,55.47,27.85,53.66,31-1.38,2.39-44.27-22.42-45.11-20.95-1.36,2.35,47.41,24.18,46,26.57-.8,1.38-34.42-20.9-35.38-19.23-1.3,2.25,24.6,11.9,23.6,13.63-.67,1.15-25.41-14.3-26.29-12.79-1.36,2.36,29,13.71,27.66,16-.74,1.29-27.69-12.64-28.63-11s31.44,16.39,30.68,17.71c-.37.64-21.66-6.86-22.23-5.88-.93,1.61,22.32,11.74,21.82,12.6s-15.21-8.4-15.54-7.83c-.71,1.24,10.21,3.7,9.26,5.35-.22.38-11.72-2.08-11.92-1.74-.63,1.09,11.9,5.41,11.27,6.51-.14.24-5.31-2.9-5.44-2.68-.58,1,8.62,4.21,8.29,4.78-.25.42-8.12,1.44-8.33,1.8s7.88,4.22,7.74,4.47-5-.84-5.23-.52c0,0,3.71,2.09,3.69,2.13" fill="none" stroke="#999" stroke-linecap="round" stroke-linejoin="round" stroke-width="1.4"/><path d="M307.94,92.61c-.34.58,9.21,3.88,8.59,5-.27.47-8.86-5.86-9.22-5.23s2.67.26,2.12,1.22-19.29-8.11-20-6.86c-1,1.69,43.84,22.35,42.56,24.57-1.07,1.85-46.82-28.53-48.55-25.53-2.1,3.63,40,20.24,38.77,22.38S270.63,81,269.25,83.39c-1.52,2.64,73.36,38,71.48,41.27-3,5.12-75.94-46.67-78.75-41.8C260,86.21,341,121.32,337.92,126.71c-2.36,4.08-83.81-51.39-86-47.63-3.64,6.3,100.39,50.86,97.31,56.19-2.84,4.93-97.12-62.6-100.39-56.95s93.63,49.41,91.62,52.9c-1.6,2.77-89.28-55.35-91.43-51.63-2.78,4.82,89.84,42.53,85.79,49.54-3,5.13-81.56-51-83.77-47.18-2.79,4.84,95.77,47.9,92.57,53.45-3.59,6.21-94.87-58.12-97-54.43-4.26,7.37,97.58,47,93.52,54-2.77,4.8-83.74-51.3-86.2-47-2.29,4,93.77,49.63,91.82,53-4,6.91-105.26-68.34-109.55-60.92-2.73,4.73,109.4,55.19,105.95,61.17-3.79,6.56-102.35-64.54-105.34-59.36-3.71,6.42,117.22,61.22,114.42,66.06-3.31,5.73-99.89-61.65-102.13-57.76-2.15,3.73,101.6,48.6,97.24,56.15-1.87,3.23-95.35-58.59-97.51-54.84-3.2,5.55,104,52,100.53,58S235.56,80.2,231.84,86.63c-3.31,5.73,115.61,57,111.38,64.31-4.45,7.7-111.11-67.25-114.14-62-5.15,8.92,127.45,65.3,123.87,71.52-4.2,7.27-124.35-70.11-126.89-65.71-3.62,6.27,127.85,61.07,122.33,70.63-4.73,8.2-120.72-76.28-125.67-67.72-3.8,6.59,129.29,62.35,124,71.58-3.63,6.29-124.37-71.91-127.52-66.46S347.84,168.89,344.3,175c-2.74,4.75-132.75-81.53-135.87-76.12-4.72,8.18,154.9,75.72,149,86-3,5.24-139.66-85.49-145.21-75.88-5.86,10.14,136.78,66.72,131.47,75.91-3.44,6-134.23-83.29-137.66-77.34-4.63,8,157.29,83.65,154.19,89-3.76,6.52-153.21-95.54-157.88-87.44-3.48,6,156.7,75.53,150.23,86.74C348,203.76,194.23,95.63,188.25,106s175.48,89.61,170.41,98.39c-6.44,11.15-163.09-101.88-167.32-94.55C186.91,117.5,356.41,191,350.28,201.6c-5.86,10.15-145.07-94.58-150.21-85.66-1.8,3.11,46.27,21.07,43.83,25.31-1.52,2.64-49.93-24.22-51.41-21.67-1.91,3.31,54,27.81,52.54,30.34s-52.14-27.29-53.42-25.06C189.8,128,240.18,147.79,238,151.63c-.86,1.5-48.56-25.32-49.81-23.14-2.41,4.17,46,22.47,44.19,25.52-2.38,4.12-57.82-36-60.12-32-2.8,4.85,72.12,34.89,69.2,40-1.95,3.37-56.6-35.11-58.66-31.54-1.84,3.19,61.1,29.44,58.57,33.82-2.38,4.12-60.5-37-62-34.48-2.81,4.87,58.4,30.14,56.85,32.82-1.32,2.29-55.32-27.69-56.94-24.88-2.85,4.93,60.39,28.42,57.6,33.26-1.49,2.57-65.72-35.2-67.08-32.84-2.11,3.65,72.81,35.26,69.88,40.35-1.84,3.19-69.74-37.7-71.29-35s69,35,66.89,38.62c-2.83,4.91-69.94-40.67-71.35-38.23-2.56,4.43,67.31,34.4,65.37,37.75-2,3.53-54.8-31.33-56.89-27.72-2.73,4.74,51.49,26.24,50,28.86-1,1.66-55.78-29.22-57.32-26.56-2,3.52,63.83,33.64,62.44,36.05-1.68,2.91-65.47-38.28-67.23-35.22-2.14,3.72,53.61,27.87,52.27,30.18-1.06,1.84-43.91-26.57-45.67-23.51-2.51,4.34,61.8,30.51,59.56,34.39-2.36,4.08-60.61-39.88-62.94-35.83-2.68,4.63,56.91,28.22,54.9,31.7-.89,1.55-49.42-28.22-50.43-26.46-2.73,4.74,53.83,26.14,51.69,29.84-1.36,2.36-50-24.37-51.24-22.16-1.38,2.4,55.82,26.93,53.53,30.91-1.89,3.27-48.76-27.24-50.34-24.49s48.51,24.18,46.85,27.05c-1.55,2.68-55.83-26.83-56.88-25-2.13,3.7,50.84,26.17,49.46,28.56-2.07,3.58-51.43-30.52-53.13-27.58-2.2,3.81,52.53,27.8,51.44,29.7-1,1.67-49.13-31-50.52-28.63s46.93,24.56,45.83,26.46c-.84,1.46-40.19-23.68-41.8-20.89-2,3.46,43.69,20.46,41.62,24-1.43,2.48-38.2-19.55-38.85-18.42-1.38,2.39,41.65,21.29,40.46,23.36-1.71,3-43.83-25.11-44.6-23.78-1.16,2,39,19.84,37.82,21.84-1.54,2.66-39.55-25-40.69-23-2.11,3.66,40.22,18.6,38.22,22.07-1.19,2.07-31.62-17.27-32.65-15.48-1.94,3.36,40.34,19.76,38.81,22.41-1.11,1.93-35.38-19.56-36.4-17.8s37.39,17,35.4,20.44c-1.73,3-43.84-23-45.33-20.39-.83,1.43,36.14,18.55,35.14,20.29-.7,1.21-32.57-17-33.66-15.16-.81,1.41,29.29,13.64,27.87,16.09-.27.46-9.11.42-9.41.95-1,1.65,9.32,3.81,8.64,5-.15.26-9.16,1.31-9.38,1.69-.62,1.08,20.19,9.74,19.36,11.18-.18.32-11.06-4.78-11.46-4.09-.82,1.43,7.79,2.84,7.07,4.08-.22.38-8.59-3.58-8.88-3.08-.54.93,4.48,1,3.8,2.19-.38.65-15.3-9.92-15.85-9-.65,1.13,8.5,3.3,7.8,4.51,0,.08-2.16.85-2.2.92-.36.62,7.71,3.37,7.24,4.18-.35.6-9.15-6-9.5-5.39s11,5.27,10.51,6.07c-.21.37-7.78-2.48-8-2.15-.33.57,16.79,8.58,16.31,9.42-.27.46-9.28-2.35-9.55-1.87-.16.28,8,4.32,7.86,4.54s-5.27-2.1-5.36-1.95,4.87,2.72,4.83,2.79-4.12-2.35-4.23-2.17,4.12,2.33,4.1,2.37" fill="none" stroke="#999" stroke-linecap="round" stroke-linejoin="round" stroke-width="1.4"/><path d="M382.77,237.29s3.68,2.07,3.66,2.11-3.56-2.29-3.71-2c0,0,3.84,2.16,3.81,2.2-.15.26-5.85.83-6.06,1.2s11.29,6.07,11.1,6.41-11.88-5.32-12.29-4.6,15.21,8.24,15,8.64-8.07.71-8.27,1.05c-.39.67,10.2,4.78,9.72,5.61s-12.13-4.29-12.54-3.58c-.56,1,11.28,4.44,10.39,6-.48.82-17.53-9.12-18-8.36-1.11,1.93,30.63,15.51,29.69,17.14s-30.52-19-31.54-17.19,23.91,12.34,23.28,13.44c-.38.65-21.38-12.35-21.88-11.47-.9,1.56,18.14,7.44,16.82,9.71-.47.82-13.38-7.36-13.74-6.75-.94,1.62,24.2,11.49,23.12,13.35-.95,1.64-25.57-14.49-26.13-13.51-1.48,2.57,24.86,11.09,23.45,13.54-.41.71-13.29-5.78-13.66-5.15-.85,1.46,21.36,10.67,20.64,11.92-1.3,2.25-34.88-21-36.27-18.61-1.06,1.83,35.4,17.36,34.07,19.67-1.14,2-31.31-18.7-32.21-17.13-1.47,2.55,43.48,22.53,42.36,24.46-.94,1.62-28.62-16.78-29.25-15.68-.88,1.52,27,11.51,25.24,14.58-.46.8-24-13.61-24.51-12.69-1.34,2.32,30.06,14,28.6,16.51-1.22,2.11-40.9-21.58-42.2-19.34-1.5,2.6,41.62,19.61,39.71,22.93-1.52,2.63-38.93-21-40-19.18-2.48,4.29,54.87,27.69,53.14,30.68s-51.27-24.39-52.28-22.64c-1.93,3.34,57.54,26.43,54.6,31.52-2.05,3.56-53.45-31-55.6-27.26s61.84,28.75,58.83,34c-1.66,2.87-58.24-29.78-59.67-27.29-1.9,3.3,67,33.69,64.87,37.45-1.5,2.6-73-43.78-74.73-40.82-3,5.11,93.4,45.35,89.69,51.78-1.69,2.92-79.27-45-82.37-39.59s58.52,27.22,55.68,32.15c-1.44,2.49-56.68-33.89-58.11-31.4-2.3,4,72.7,38.42,71.16,41.08s-66.35-39.2-68.35-35.74c-1.49,2.58,57.44,26.77,54.67,31.57-1.63,2.82-58.18-33.64-60.33-29.92-2.43,4.21,72.16,36.88,70.09,40.47-2.5,4.33-63.89-38.63-65.53-35.78-1.85,3.21,62.4,30.1,59.83,34.55-2,3.51-50.5-32.2-52.28-29.12-1.88,3.26,49.8,22.84,47.24,27.28-1.91,3.3-61.8-31.92-63.64-28.73-2.56,4.44,79,41.13,77.09,44.51-2.36,4.09-82.51-46.63-84.58-43C347.83,323,440.46,362.09,437,368c-1.56,2.7-86-49.27-88.26-45.35-4,6.85,94.16,47.69,91.27,52.7-4.11,7.12-99-63.6-103-56.73-4.59,8,121,58.79,116.21,67.1-3.41,5.91-98.45-62.85-102.07-56.6-3,5.22,109.7,53.78,105.56,60.95s-104.5-64.95-107.06-60.51c-4.61,8,106.48,55.62,103.94,60-2.19,3.79-89.87-50.1-92.56-45.44-4.71,8.15,110.11,52.92,105.5,60.91-2.39,4.14-104.32-59.41-106.52-55.61-3.51,6.08,123.25,59.88,118.37,68.34-2.92,5.05-109.09-62.5-111.53-58.27-2.66,4.6,117.38,59.79,113.93,65.78-4.57,7.92-112.15-67-114.42-63.09-4,6.85,107.66,55.27,104.68,60.44-3.24,5.61-86-52.2-89.34-46.46-3.73,6.46,78,40.27,75.93,43.84-1.27,2.2-73-40.3-75-36.78-2.31,4,73.44,38.75,71.86,41.49-1.81,3.14-70.33-41.4-72.23-38.1-2.16,3.74,54,28.11,52.7,30.43-1,1.71-40.94-24.57-42.58-21.73-2.54,4.4,62.65,30.94,60.38,34.86-2.36,4.09-60.8-40-63.14-35.95-2.71,4.7,57.91,28.73,55.87,32.26-.85,1.47-47.17-26.82-48.14-25.14-2.81,4.86,55.67,27.07,53.48,30.88-1.18,2-43.48-20.22-44.58-18.31-1.49,2.57,60.72,29.38,58.26,33.64-1.87,3.25-48.39-27-50-24.28-1.77,3.07,55.33,27.72,53.5,30.89-2,3.5-72-36.92-73.39-34.56-3.14,5.44,80,41.51,78,45-3.41,5.92-84.22-52-87-47.16-3.64,6.31,91.9,48.87,90.09,52s-87.61-55.8-90.1-51.49c-2.34,4,88.09,46.58,86.24,49.79S387.44,414.42,384,420.37c-3.78,6.56,96.56,46.73,92.65,53.49-3.67,6.35-95.41-54.94-97.08-52-3,5.18,107.44,56,104.85,60.54-4.36,7.56-110.74-66.5-112.7-63.1-2.69,4.65,111.63,58.27,109,62.91-4.28,7.41-109.57-70.08-112.74-64.6-5,8.63,115.74,55.91,111,64.1-4.21,7.29-108.06-67.41-111.7-61.12-5.11,8.85,127.07,64,123,71-3.7,6.41-114.52-70.69-117.89-64.85-2.63,4.56,127.31,60.83,121.82,70.34-5,8.71-123.27-75.37-127.59-67.89-2.43,4.2,125.31,65.56,122.37,70.66-2.54,4.41-114-70.71-118-63.85-2.35,4.06,110.87,54.58,106.78,61.66-2.69,4.66-81.92-48-85-42.69-2.75,4.76,78.09,40.56,76.13,44-1.28,2.22-72.49-39.13-74.38-35.84s77.87,39.19,75.37,43.52c-1.15,2-64.58-40.53-67.08-36.21s61.75,30.45,59.5,34.35c-1.62,2.81-58.85-36.87-61-33.17-1.76,3,55.53,27,53.32,30.79-1.56,2.7-63.05-41.51-65.35-37.53-2.14,3.7,59.33,29,57,32.94-1.09,1.89-51-29.55-52-27.84-1.3,2.26,56,28.39,54.28,31.34-2.07,3.59-54.48-36.19-56.57-32.57-1.48,2.57,59.15,30.25,57.46,33.18-1.59,2.76-53.48-31.81-54.95-29.27s44.25,20.7,42.15,24.34C435.53,499,398.9,475.87,397.67,478c-1.6,2.77,41.42,21,40.14,23.18-1.19,2.06-29.51-17.15-30.06-16.21-1.34,2.32,39.13,20.34,38.16,22-.43.74-23.66-7.79-24.24-6.79-.79,1.38,3.49.94,3,1.74-.14.24-5.48-2.69-5.6-2.49-.59,1,10.54,4.22,9.73,5.62-.33.57-17.2-6-17.54-5.43s13.5,7.33,13.3,7.68-5.32-2.8-5.48-2.52c-.33.57,1.05,0,.79.46-.14.24-5.17-.46-5.25-.32s4.18,2.33,4.14,2.39" fill="none" stroke="#999" stroke-linecap="round" stroke-linejoin="round" stroke-width="1.4"/><path d="M77.31,428.89c-2,3.48,56.62,29.12,55.08,31.8C131.08,463,68.73,426.9,67,429.88c-2.52,4.36,60.81,29.34,58.31,33.67-1.68,2.91-47-22.18-47.88-20.69C75.62,446,129,468.2,127.09,471.54c-1.36,2.35-61.71-38.08-63.12-35.64s56,28.12,54.16,31.27c-1.26,2.18-41.49-21.8-42.28-20.43-1.74,3,39.79,18.46,37.83,21.84-1,1.78-46.09-26-47.59-23.4s58.79,29.78,57,32.9c-1.51,2.62-66.33-36.06-68.45-32.4-2.49,4.32,63.72,33.91,62.48,36.07-2,3.46-59.06-36.72-60.37-34.45-2.06,3.57,52.22,25.11,50,28.89-1.54,2.67-42.19-18-42.94-16.73-1.25,2.17,46.28,22.23,44.34,25.6-1.26,2.18-58.8-36.27-60.13-34-1.82,3.15,67.21,36.08,66,38.13-1.5,2.59-56.72-35.48-57.93-33.39-2.24,3.89,46.69,21.15,44.17,25.5-1.32,2.28-42.65-26.09-43.87-24-2.42,4.19,61.83,29.54,59.17,34.16-1.51,2.62-62-32.07-63.42-29.53-1.84,3.18,58.84,31.27,57.67,33.3-2.11,3.65-61.37-32-63-29.08-1.76,3.05,48.87,23.75,46.94,27.1-1,1.82-50.4-30.69-51.51-28.77s53.81,27.21,52.14,30.11c-1.26,2.19-48-31.21-49.56-28.54C42.73,469.77,108.76,499,107,502c-2.45,4.24-61.75-36-63.17-33.59-2,3.48,64,31.37,61.57,35.55-2.26,3.92-61.17-33.08-63.1-29.74-1.29,2.24,54.13,28.52,52.95,30.57-1.58,2.73-46.65-22.15-48-19.75-2.1,3.64,32.28,15.42,30.89,17.83-1.54,2.67-46.27-25.61-47.88-22.82-1,1.75,42.74,22.52,41.81,24.14-.74,1.28-43.37-20.85-44.66-18.62-1.16,2,27.27,12.39,25.82,14.91-.6,1-25.44-9.12-26.09-8s15.08,7.3,14.47,8.35-20.76-8.67-21.47-7.44,13.21,6.35,12.66,7.31-14.18-7.84-14.5-7.3C17.6,494.59,40.48,505.07,40,506c-.41.7-14.5-5.15-15-4.24s1.15-.74.54.31c-.2.35-11-3.65-11.27-3.23-.41.72,15,8,14.69,8.48s-8.38-3.54-8.69-3,1.13.2.93.54-10.3-1.29-10.59-.79c-.1.17,5.71,3.14,5.64,3.26-.17.29-6.39-2.22-6.49-2,0,0,3.55,2,3.53,2" fill="none" stroke="#999" stroke-linecap="round" stroke-linejoin="round" stroke-width="1.4"/><path d="M160.72,414.83s3.56,2,3.55,2c-.32.55-12.27-2.63-12.61-2-.16.27,10.36,5.57,10.18,5.88-.31.54-10,.11-10.24.48-.47.82,1.17-.11.83.48-.64,1.1-18-4.31-18.51-3.42-.87,1.51,10.66,4,9.74,5.63-.54.93-19.27-8.44-19.66-7.76-.71,1.23,29,14.46,28,16.15" fill="none" stroke="#999" stroke-linecap="round" stroke-linejoin="round" stroke-width="1.4"/><path d="M100.8,342.48c-2.17,3.76,51.05,25.31,49.25,28.44-1.55,2.69-42.24-24.14-43.65-21.68-1.68,2.9,44,20.68,42,24.23-1.77,3.07-55.44-29.88-57-27.11-2,3.51,47.79,22.41,45.55,26.3-1.45,2.51-44.72-21.93-45.49-20.59-1.59,2.75,42.05,21.08,40.67,23.48-1.21,2.09-43.15-26.39-44.17-24.62-1.32,2.28,50.33,23.94,48.12,27.78-.82,1.42-43.83-24.92-45.34-22.31-1.28,2.22,47.27,24.71,46.15,26.65-2,3.44-54.75-29.2-55.69-27.58-1.53,2.65,50.08,23.91,47.92,27.67-.92,1.6-47.94-27.23-49.8-24s48.53,24.39,47,27.11c-.89,1.55-32.94-16-33.62-14.8-1.37,2.37,32.25,15.49,30.9,17.84S78.75,360.6,77.1,363.46s45.43,22.92,44,25.4c-1.3,2.25-40.11-25.48-41.46-23.12-2.17,3.77,42.69,21.06,41.14,23.75-.89,1.53-43.44-27.14-45.21-24.06-2.37,4.1,47.54,21.93,45.15,26.07-.84,1.46-42.62-27.14-44-24.73-1.51,2.61,42.19,19.56,40.11,23.16-1,1.67-40.75-21.75-41.89-19.79-2.39,4.14,58.22,28.44,56,32.32-1.36,2.36-50.6-30.72-51.72-28.77S129.41,400.1,128.29,402c-1.26,2.18-54.42-35.62-56.57-31.89-1.71,3,56.31,28.79,54.69,31.58-1.2,2.08-50.93-30.08-52.93-26.61-1.65,2.85,49.06,23.63,47,27.15-1.22,2.12-44.62-27.57-46-25.26-1.06,1.84,51.08,24.76,49,28.31-1.78,3.09-51.39-30.38-53.32-27s58.08,29.05,56.14,32.42c-1.62,2.8-45.81-24.32-47-22.3-2.11,3.66,47.27,21.82,44.9,25.92-1.84,3.19-51.84-31.59-53.92-28-3.32,5.75,71.18,34.72,68.42,39.5-2.14,3.7-60.83-38.09-62.41-35.35C74,394.76,137.88,422.26,136.28,425c-2.06,3.56-75.7-43.85-78.56-38.9-3.17,5.49,81.7,38.86,78.1,45.09C134,434.46,71.66,396.37,70.16,399,68.53,401.8,140,432.36,137,437.56c-1.94,3.35-70.75-42.44-73.2-38.19-2.59,4.48,74.81,35.12,71.31,41.17-1.79,3.1-72.45-47-74.73-43.08-2.14,3.7,74.67,35.23,71.25,41.14-2,3.4-74.37-40.33-75.86-37.74-2.29,4,84.22,40.21,80.57,46.52-1.78,3.07-87.21-47.4-89.05-44.2-2.82,4.89,87.1,46.27,85.36,49.28C131.2,455,55.34,404.43,52.53,409.3c-3.48,6,81.64,39.57,78.36,45.25-1.49,2.57-71.67-44.56-73.36-41.64-3.65,6.32,66.63,31.28,63.52,36.67-1.56,2.71-73.11-41-75.22-37.36-.9,1.56,12.75,6.09,12.2,7S42.46,415,42.16,415.54c-.63,1.09,11.19,5.4,10.73,6.19-.15.25-6-3.66-6.26-3.28-.46.8,3.07.64,2.58,1.49-.33.58-12-5.8-12.39-5.16s5.42,2.33,5.07,2.93c-.16.28-6.52-1-6.67-.76-.37.64,13.41,6.9,13,7.53s-13.56-6.93-14-6.16c-.22.38,10.86,5.81,10.66,6.16s-13.32-2.42-13.54-2c0,0,3.55,2,3.53,2" fill="none" stroke="#999" stroke-linecap="round" stroke-linejoin="round" stroke-width="1.4"/><path d="M187.48,309.09s3.56,2,3.55,2-1,1.12-1,1.21.25,0,.19.11c-.4.69-14.49-4.16-15-3.37-.36.63,12.81,6.71,12.51,7.22-.51.88-19.1-8.08-19.59-7.22-.27.47,18.18,9.37,17.7,10.22-.34.59-14.07-5.54-14.41-5s4.1,1.55,3.75,2.16-8.36-2.76-8.63-2.29c-.48.83,8.75,3.09,7.9,4.56" fill="none" stroke="#999" stroke-linecap="round" stroke-linejoin="round" stroke-width="1.4"/><path d="M137.13,231s3.74,2.1,3.71,2.14-3.61-2.33-3.76-2.07c0,0,3.9,2.19,3.87,2.24-.15.26-6,.74-6.21,1.11s12,6.41,11.74,6.78-12.54-5.76-13-5,16.17,8.75,15.92,9.19-9.11.06-9.33.44c-.42.72,11.9,5.68,11.39,6.57s-13.8-5.4-14.28-4.58c-.6,1,13.47,5.54,12.5,7.22-.54.93-19.63-10.46-20.13-9.6-1.2,2.08,33.07,16.75,32.06,18.51s-32.83-20.47-33.92-18.57,26.45,13.69,25.77,14.88c-.42.73-23.83-13.9-24.39-12.93-1,1.69,20.88,8.78,19.46,11.24-.57,1-16-9-16.39-8.28-1,1.75,27.06,13,25.9,15-1.05,1.82-28.32-16.22-28.94-15.13-1.6,2.77,27.95,12.62,26.42,15.26-.51.88-16.23-7.68-16.68-6.89-.91,1.58,24.73,12.48,24,13.83-1.42,2.46-38.1-23.19-39.63-20.55-1.14,2,39.11,19.25,37.67,21.75-1.27,2.21-34.83-21-35.84-19.23-1.59,2.76,47.34,24.56,46.14,26.64-1.06,1.84-32.33-19.12-33.05-17.88-.92,1.59,29.5,12.74,27.64,16-.51.88-26.35-15.11-26.94-14.09-1.34,2.33,30.24,14.09,28.78,16.62-1.23,2.13-41.17-21.76-42.47-19.5s33.95,15.73,32.27,18.63c-1.23,2.13-31.76-16.37-32.6-14.92-2,3.42,41.17,20.6,39.79,23-1.23,2.13-38.33-16.3-39.07-15-1.31,2.27,31.79,13.75,29.8,17.21-1.11,1.92-29.73-15-30.89-13-1.33,2.31,28.56,12.17,26.69,15.41-.73,1.27-27-9.92-27.68-8.81-1,1.82,23.06,10.55,21.86,12.62-.63,1.09-31.06-17.25-31.77-16-1.58,2.74,45.74,21.82,43.75,25.26-.74,1.29-36.41-16.2-37.77-13.84-2.72,4.72,46.5,21.15,44,25.42-1.23,2.13-48.48-28.68-49.71-26.55-2.14,3.7,66.91,35.32,65.48,37.81C177.7,332,113,290.06,111,293.52c-1.59,2.75,62.27,29.14,59.32,34.25-2,3.4-69.8-41.38-72.39-36.88s79.48,40.62,77.2,44.57c-2.82,4.89-72-43.78-73.84-40.57-2,3.44,67.72,32.75,65,37.51-2.18,3.77-54.18-34.63-56.09-31.32s52,24,49.41,28.53c-1.66,2.88-54.3-27.06-55.91-24.27-2,3.52,58.59,30.25,57,32.94s-56.19-29.87-57.58-27.46c-1.91,3.32,52.85,25.1,50.51,29.16-.94,1.62-52.41-27.78-53.77-25.43-2.54,4.39,50,24.59,48.15,27.8-2.54,4.39-61.54-38.47-64-34.23-2.95,5.1,76.14,36.86,73.06,42.19-2.07,3.59-60.25-37.53-62.45-33.72-1.93,3.35,65,31.4,62.35,36-2.53,4.37-64.25-39.41-65.81-36.7-3,5.13,62.32,32.22,60.69,35-1.43,2.47-59.56-30.43-61.31-27.4-3,5.22,64.91,30.65,62,35.77-1.59,2.76-70.36-38.11-71.82-35.57-2.25,3.89,77.74,37.66,74.61,43.08-2,3.45-75.31-41.21-77-38.31s74.84,38,72.58,41.9c-3.08,5.34-76-44.45-77.53-41.79-.61,1,10.95,5.26,10.49,6.06s-15.67-5.19-16.22-4.24c-.41.71,14,7.54,13.75,7.94s-16.58-4-17-3.28c-.08.13,5.73,3.19,5.68,3.28-.15.26-6.39-2.32-6.55-2,0,0,3.54,2,3.53,2" fill="none" stroke="#999" stroke-linecap="round" stroke-linejoin="round" stroke-width="1.4"/><path d="M186.78,409.75C180.22,421.1,359,496.55,353.5,506c-5.87,10.17-155.65-98.73-161-89.44-4.92,8.53,160.89,79,154.86,89.41-5.42,9.4-164.84-100.67-169.74-92.18-5.67,9.83,157.15,76.2,150.86,87.1-5,8.62-148-85.88-150.61-81.28-4.24,7.35,142.29,73.6,138.59,80-3.9,6.76-138.76-86.87-142.07-81.14-3.49,6,150.76,73.49,144.89,83.66-2.64,4.56-137.15-86.48-142-78.11C174,429.73,318,498.71,315.18,503.66,309.82,513,170.42,418.83,167.9,423.2c-3.76,6.51,139,68,133.71,77.2C299,504.86,171.35,418,166.18,426.94c-4.41,7.63,130.29,66.7,126.6,73.09-3.12,5.41-110.75-64.78-113.1-60.69-3.06,5.31,107.58,55.08,104.54,60.36-3.39,5.87-115.68-75.74-120-68.3-3.56,6.17,119.57,61.68,116.38,67.2-3.58,6.2-110.07-71.39-113.82-64.9-4.79,8.3,115.88,59,112.46,64.93-2.31,4-111.84-73.23-116.47-65.2-5.11,8.84,119,56.79,113.81,65.71-2.17,3.76-109.07-70.56-112.65-64.36-3.23,5.6,112.34,54.58,107.88,62.29-2.59,4.49-106.47-64.09-109.51-58.84-4.89,8.47,122.61,60.22,118,68.15-3,5.21-111.26-68.87-113.74-64.58-2.13,3.68,112,59.44,109.75,63.37-2.62,4.53-112.71-74.64-117.18-66.89-3.42,5.92,117.56,60.42,114.33,66-2.59,4.49-108.11-68.47-112.44-61-3.15,5.45,105.41,51.87,101.52,58.62-2.69,4.66-97.46-61.78-100.4-56.7-2,3.47,105.74,52.14,101.88,58.82-3.6,6.24-102.15-64.21-106-57.48-3.52,6.1,107.61,54.06,104.11,60.11-3.33,5.77-92.38-54.07-94.79-49.9-3.58,6.2,90.6,43,86.59,50-3.29,5.7-91.78-58.45-95.5-52-3.62,6.27,79.51,39,76.5,44.17-2.41,4.18-68.68-43.1-70.47-40-2.66,4.61,68.77,35.7,67,38.71-2.24,3.89-82.42-48.33-85.54-42.93s80.44,38.24,76.89,44.39c-1.82,3.15-62.79-34-64.26-31.47s61,29,58.31,33.67c-1.7,2.95-62.38-36.92-64.53-33.18s60.43,28.05,57.47,33.18c-1.46,2.52-59-38.31-60.89-35.08s60.2,28.1,57.32,33.09c-1.59,2.75-60.52-31.67-61.72-29.58-1.73,3,61.52,29.13,58.76,33.92-1.32,2.29-65.62-33.84-67-31.46-1.85,3.21,55.28,29.29,54.14,31.26-.88,1.52-47.11-28-48.81-25.1-2.13,3.69,45.15,21.44,43.14,24.91-.77,1.33-37.24-22.8-38.12-21.29-2.2,3.8,29.23,12.55,27.36,15.8-.79,1.36-37.8-18.2-38.86-16.37-1.8,3.12,36.84,18.72,35.73,20.63-1.29,2.24-38.43-18.56-39.21-17.2-1.51,2.62,35.18,17.77,34.08,19.68-.7,1.22-28.52-18.61-29.59-16.75s27.11,12.9,25.91,15c-1,1.73-34.55-20.53-35.66-18.59-1.21,2.1,29.27,14.76,28.35,16.37-.3.51-11.6-4.26-11.89-3.77-1.22,2.11,14.86,5.79,13.65,7.88-.59,1-22.71-13-23.48-11.62-.89,1.53,8.07,2.81,7.27,4.2-.13.23-6.57,2.23-6.69,2.43-.49.85,10.76,4.69,10.11,5.83-.55,1-15.33-5.06-15.86-4.15-.4.7,1.63,0,1.24.72s-13.56-.95-13.82-.49,10.15,5.39,9.94,5.74c-.32.56-10-5.66-10.38-5.05-.14.25,8.92,4.77,8.75,5.05-.32.55-10.49-2.34-10.66-2,0,0,3.57,2,3.55,2" fill="none" stroke="#999" stroke-linecap="round" stroke-linejoin="round" stroke-width="1.4"/><path d="M204.19,298.61c-2.84,4.93,160.06,79.36,154.41,89.15-3.23,5.6-144.44-94.21-149.9-84.74-5.86,10.16,166.33,87.57,162.66,93.92-4.55,7.89-148.68-92.65-153.91-83.6-6.61,11.45,148.94,73.42,143.5,82.85-4.23,7.32-148.64-91.21-152.74-84.1-3.14,5.44,152.92,75.38,147.33,85.06-3.87,6.7-147.52-90.57-151.31-84-3.36,5.81,147.31,78,144.23,83.28-5.72,9.92-141-85.28-146-76.52-3.3,5.72,145.76,70.64,139.9,80.78-3.05,5.29-145.22-87.83-148.38-82.38-3,5.23,148,77.62,144.63,83.51s-142.9-87.73-146.41-81.66c-3,5.21,139.86,72.83,136.43,78.77-3.13,5.42-135-82.15-138.08-76.84-3.64,6.31,145.32,73.44,140.79,81.29-4.4,7.62-137-80.26-139.72-75.57-4.1,7.1,152.12,78.18,147.94,85.42-3.16,5.48-135.23-85.7-139-79.09-4.1,7.1,132.13,69,129,74.47-3.53,6.11-130.54-83.68-135.17-75.66-4.74,8.22,144.58,73,140,80.86-4.11,7.12-143.89-89.64-149.13-80.57-4,7,163.07,86.23,159.63,92.17-2.94,5.1-156.88-94-161.38-86.22-6.26,10.85,174.94,93.3,171.6,99.08-4.8,8.32-159.32-99.08-162.89-92.9-5.2,9,158.14,75.35,151.23,87.32-3.4,5.89-162.48-95.75-165.55-90.44-7.19,12.46,187.55,91.55,180.3,104.1-4.7,8.14-170.93-108-175.15-100.66-7.05,12.22,182.76,96.25,178.75,103.2-5.89,10.21-175.16-106.06-180.15-97.41-7.69,13.32,189.94,96,184,106.25-4.35,7.54-186.94-120.23-194.71-106.77C162.68,365.19,368.75,448.58,361.57,461c-4.71,8.16-182.51-109.67-186.46-102.83s205,105.72,199.52,115.2c-6.48,11.23-197.79-124.18-204.34-112.83C161.54,375.7,377.6,466.78,371.76,476.9,364.22,490,180.32,361,175.61,369.17,169.12,380.43,400.71,478.58,391.81,494c-5.31,9.19-213.91-135.73-222.32-121.15S399.72,492.25,393.86,502.4C385,517.75,170.24,362.23,162,376.46,154.08,390.23,380.25,488.65,374.27,499,366.62,512.26,169,378.65,164.81,386c-8,13.77,198.08,100.61,192.12,110.93-7.47,12.93-195.87-120.81-200.29-113.15-6.35,11,202.61,105.85,197.79,114.2C348.3,508.6,169.55,385.37,165.26,392.8c-5.4,9.36,190,91.12,182,105.05-3.46,6-185.44-115.11-190.72-106-.83,1.44,14.08,6.3,13.29,7.67-.52.9-22.15-8.84-22.84-7.64s16.38,7.4,15.49,8.95c-.21.37-9.34-2.85-9.65-2.32s3.75.8,3.16,1.82c-.36.62-11.64-5.93-12.09-5.16-.57,1,14.7,7.18,14.13,8.16-.16.27-5.89-3.77-6.08-3.46-.42.73,1.32-.48.79.45-.27.47-10.63-1.32-10.87-.92-.35.61,4.13,1.95,3.94,2.27,0,.08-1.38.76-1.42.83-.17.29,3.64,1.72,3.48,2-.35.6-10.31-1.63-10.68-1,0,0,3.57,2,3.55,2" fill="none" stroke="#999" stroke-linecap="round" stroke-linejoin="round" stroke-width="1.4"/><path d="M255.22,168.37s3.65,2.05,3.63,2.09-3.53-2.27-3.67-2c0,0,3.79,2.14,3.77,2.18-.15.25-5.74.9-6,1.26s10.85,5.83,10.66,6.15-11.42-5-11.82-4.33,14.55,7.89,14.32,8.27-7.36,1.16-7.54,1.48c-.37.63,9,4.17,8.58,5s-11-3.53-11.35-2.89c-.53.92,9.79,3.69,8.94,5.16-.43.75-16.1-8.2-16.5-7.51-1.05,1.82,29,14.67,28.08,16.21s-28.95-17.92-29.91-16.25,22.18,11.42,21.58,12.46c-.35.6-19.7-11.29-20.17-10.48-.85,1.48,16.27,6.53,15,8.68-.41.71-11.62-6.23-11.92-5.7-.88,1.53,22.24,10.5,21.23,12.26-.88,1.52-23.69-13.31-24.22-12.4-1.4,2.43,22.76,10.06,21.42,12.37-.35.6-11.28-4.49-11.59-4-.8,1.38,19.07,9.43,18.39,10.62-1.21,2.1-32.68-19.55-34-17.29-1,1.73,32.88,16.07,31.62,18.25-1.05,1.82-28.91-17.15-29.74-15.7-1.39,2.42,40.84,21.15,39.79,23C283,216.68,257.81,200,257.24,201c-.83,1.44,24.25,10.13,22.57,13-.41.71-21.34-12-21.82-11.13-1.27,2.2,27.18,12.52,25.8,14.9-1.13,2-38.13-19.77-39.33-17.69-1.42,2.46,38.3,17.93,36.49,21.07-1.39,2.4-35.74-18.92-36.68-17.28-2.34,4.06,51.23,25.81,49.59,28.63S246.18,210.4,245.24,212c-1.82,3.16,53.2,24.29,50.42,29.11-1.89,3.28-49.37-28.23-51.35-24.81s57.09,26.38,54.24,31.32c-1.52,2.63-53.67-26.87-55-24.58-1.8,3.12,61.73,30.9,59.68,34.46-1.39,2.42-67.93-40.55-69.51-37.81-2.81,4.87,88.44,42.9,84.9,49-1.61,2.79-75.71-42.56-78.66-37.45-3.79,6.56,77.18,36.63,73.75,42.58-2,3.42-77.38-47.08-79.35-43.67-3.06,5.3,100.32,53.19,98.27,56.74-2.39,4.14-98-59.71-100.95-54.56-2.38,4.13,101.87,48.6,97.44,56.26-3,5.24-106.36-65.72-110.35-58.8-4.22,7.31,124.63,63.65,121,69.88-4.52,7.82-114.63-71-117.6-65.84s110.35,53.94,106.12,61.27c-3.79,6.56-93.88-60.82-97.21-55.06-2.95,5.1,93.18,44.54,89.17,51.48-2.9,5-92.6-51.94-95.41-47.07s88.51,46.16,86.37,49.87c-2.42,4.2-84.6-48-86.72-44.28-2.46,4.25,75.32,36.54,72.31,41.75-1.33,2.3-73.46-41.25-75.39-37.91-3.46,6,78.84,39.67,76.31,44.06-3.67,6.36-88.51-56.57-92.06-50.43-4.17,7.22,109.48,53.15,105.12,60.69-3.15,5.46-91.08-58-94.42-52.19-2.82,4.88,101.63,49.73,97.75,56.44S215.43,251.2,213,255.39c-4.38,7.6,100.37,52.38,98,56.56s-95.45-53.72-98.31-48.76c-4.91,8.5,115.5,55.57,110.69,63.91-2.71,4.69-117.87-67.91-120.36-63.6-3.9,6.75,137.22,66.7,131.8,76.1-3.52,6.09-131-76.32-134-71.21-3.2,5.55,142.72,72.77,138.55,80-5.74,9.95-140.55-84.78-143.41-79.83-5.27,9.13,145.77,75,141.79,81.87-4.9,8.48-129-80.91-134-72.23-6,10.36,137.9,72,134.59,77.71-2.46,4.26-139.33-83-143.27-76.19-4.81,8.34,161.27,85.5,158,91.21-4.15,7.19-159.27-98.42-163.62-90.87-5.3,9.18,157.23,83.17,153.93,88.88-3.5,6.06-142.19-92.69-148-82.6-6.41,11.11,171.82,86,166.1,95.9-6.36,11-163.29-108.35-169.6-97.42-6.88,11.92,167.47,84.75,162.3,93.71-2.85,4.93-155.22-94.45-158.46-88.84-7.26,12.57,169.3,84.62,163.61,94.47C354.75,392.08,198,288.54,193.72,296c-.38.66,7,2.56,6.34,3.66-.82,1.42-22-9.74-22.72-8.55-.31.53,15.58,8.26,15.26,8.81-.48.83-18.57-3.65-18.89-3.09-.08.14,5.41,3,5.36,3.09-.22.38-5.84-2.36-6-2,0,0,3.56,2,3.55,2" fill="none" stroke="#999" stroke-linecap="round" stroke-linejoin="round" stroke-width="1.4"/><path d="M130,191.32c1-1.2-26.1,12.09-25.78,12.15.61,0-26.3,13.12-26,13.4-.76-.31,29.42,1.69,28.72,1.79.87-.1,27.25,1.32,27.15,1.25.05-.4,2.54-2.56,1.38-2.8.81.1-1.93-12.21-1.89-11.43C133.78,205,130.59,190.41,130,191.32Z" fill="none" stroke="#666" stroke-width="3.5"/><path d="M382.94,169.51c.29.58,26.2-12.9,26.69-12.48.29-.53,26.59-13.32,25.44-13,1.06-1.06-28.36-2.28-28.71-1.74-.09,0-30.12-2.41-29.14-1.13.11-1.2,3,14.27,3.54,13.45C380.27,155.62,383.09,169.65,382.94,169.51Z" fill="none" stroke="#666" stroke-width="3.5"/><path d="M409.74,202.5c.08-.21-27.15-12.67-26-13.3-.53.75-3.27,14.67-2.94,14.85-1,.31-3.37,15.58-3.48,14.67-.4.07,6.77.31,7.32-.89-.11,1.25-.15,1-.18.26-.42.43.67.51.35.17.41.39,21.69-1,22.55-1-.47-.7,28.79-2.45,28.21-2.35C436.12,214.76,409.35,202.43,409.74,202.5Z" fill="none" stroke="#666" stroke-width="3.5"/><path d="M361.15,109.72c.24.16,8,13.08,8.71,11.93-.67,1.51,18.6-21.55,18.94-21.47.19.29,19.26-22.7,19-21.36.39-.65-27.06,8-27.31,9.84.52-1.26-27.47,8.59-27.62,9.47C352.51,96.77,360.87,110.28,361.15,109.72Z" fill="none" stroke="#666" stroke-width="3.5"/><path d="M132.81,88.61c-.88.49-28.68-9.25-28.34-9.35.1.42,19.72,22.12,19.86,22.42-.51-.63,19.28,22.18,19.44,20.79.46,1.69,8.3-10.71,7.63-11.88.91,1.1,9.63-12.44,8.79-12.12C161,97.71,132.69,89,132.81,88.61Z" fill="none" stroke="#666" stroke-width="3.5"/><path d="M174.07,84.48c.51-.37,12.68-8.22,12.89-8.94.08,1.71,12.56-8.89,11.72-7,.68-1.13-22-20.73-21.66-19.83-.44-.63-22.91-20.37-22.56-19.8.29-1.12,9.92,28.69,9.85,28.7C164.55,57.75,174.08,85.26,174.07,84.48Z" fill="none" stroke="#666" stroke-width="3.5"/><path d="M77.7,145.67c-.87-.66,26.34,12.55,26.24,12.64.47.22,26.51,12.79,27,12.56.22-.08,3.12-14.42,2.2-15.14.52.5,3.18-14.19,2.42-14.18.87,0-28.58,1.34-28.65,2.3C107.28,143.92,76.84,145.13,77.7,145.67Z" fill="none" stroke="#666" stroke-width="3.5"/><path d="M246.32,53.5c.12.31-12.94-26.47-13.06-25.07,0-1-13.21-27.27-13-27-.29-.79-1.8,29.07-1.61,29.49.23-.42-1.47,29-1.25,29-.62.91,14.25-2.3,14.57-2.71C231.63,57.15,246.41,54.56,246.32,53.5Z" fill="none" stroke="#666" stroke-width="3.5"/><path d="M295.52,60.32c.44.77-1.58-29.43-2.31-30.07.45,0-1.2-29.42-1.82-27.94.23-2.4-12.75,25-12.36,25.33,0-.63-13.15,26.63-12.7,25-.51,2.67,14.37,3.55,14.63,4.64C281.15,57.08,295.54,60.21,295.52,60.32Z" fill="none" stroke="#666" stroke-width="3.5"/><path d="M339.11,82.7C338.49,85,348,56,348.4,55.61c-.32.05,9.72-27.44,8.53-27,1.2-1.43-21.43,18.48-21.2,19.23,0-1-22.3,20.56-21.83,19.08-.7-.49,12.48,9.43,12.78,8.2C326.05,76.35,339.17,84.13,339.11,82.7Z" fill="none" stroke="#666" stroke-width="3.5"/><path d="M274.59,83c-52.25-16.87-108.43,24-115.68,79.84-10,33.29,2.17,70.93,29.87,92.81-2.37,2.66,70.14-108.61,66.45-110.26-.34,1.67,70.44,115.51,71.25,114.82,16.76-12.62,26.77-37.5,32.58-61.37C370.8,142.64,334.16,90.48,274.59,83Z" fill="none" stroke="#666" stroke-width="3.5"/><path d="M448.41,426.68c2.92-4.16,33.7.27,34.46-5.64.65,1.21-57.12-78-54.23-79.53-.64,1.36,25.27,0,23-5.11,3.29,1.71-68.59-103-68.38-96.2,2.37-4.53-33.11,50.07-30.67,54.33-3.41-5.9,9.47,19.12,12.78,16.4-1.73,1.12-20.92.22-26.23.86-2.67-6.47-7.14,3.2-5.47,6.79,17.53,22.44,64.12,98.56,64.9,101.31.47-3.78-28.83-8.3-37.61-7.55,8.66,20,40.67,76.34,54.91,98.12,2.09.22,86.38.85,86.07-6.61C502.78,503.62,450.11,431,448.41,426.68Z" fill="none" stroke="#666" stroke-width="3.5"/><path d="M158.7,312.74c-1.11-2,19.06-32.3,17.43-32.69-.82.75-37.48-52.62-38.34-50.53,3,4.28-74.22,103.29-72.68,107.75-2,2.07,26.83-.59,29.36-1.66-.35-2.73-63.27,94-62.2,85.05-1.64,3.6,37,5.07,38.46,3.49-3.79,3.16-59,85.23-60,80.93C8.76,509.52,105.15,504,104,502c16.21-19.16,49.75-64.21,58.84-91.2-11.34,1.93-40,5.19-40.57,8.17-.65-1.32,54.79-85,66.5-105.26C185.59,313.82,161,311.11,158.7,312.74Z" fill="none" stroke="#666" stroke-width="3.5"/><path d="M398,508.58c5.29,4-59.58-109-60.84-111,.53,5.89,40.94,14.59,36.31,9.85,2.36-1.42-64.77-111.19-68-105.09,3-4.18,34.82-5,31.43-8.54,1.38,11.48-79.69-132.43-78-127-3.37,2.35-86.24,127.78-84.15,134.7,1.13,2.25,31.5-.71,33.23-5.93-1.7,1.63-70.71,109-65.71,105.61-5.74,9.43,37.59.77,37.13.13-2.44,6.55-65.62,102.5-63.47,109.78C115.12,509.68,399.75,507.62,398,508.58Z" fill="none" stroke="#666" stroke-width="3.5"/><path d="M130,190.33c-.32.4-26.53,13.23-26.38,13.66-.31-.1-25.24,12.66-26.93,12.78.75-.34,30.77,1.23,30.84,1.57-.07-.4,26.5,1.39,26,1.78-.19-.76,3.34-3.13,2-3.17,1.07,0-1.7-11.72-.91-11.86C134.25,205.28,129.59,190.94,130,190.33Z" fill="none" stroke="#4c4c4c" stroke-width="2.63"/><path d="M382.38,170.11c-.15-.31,27.19-13.48,26-13.2,2.2-.31,26.78-13.3,27.45-13.24-.42,0-28.85-1.38-30.47-1.74,1.06.45-27.2-1.29-27.43-1.32-1.38-.06,2.05,14.62.87,14.57C381.46,155.46,383.56,169.93,382.38,170.11Z" fill="none" stroke="#4c4c4c" stroke-width="2.63"/><path d="M409.43,202.36c-.64,0-26.33-12.68-27.1-12.69.66.12-.76,14.54-1.62,14.76-.85-.07-2.2,14.52-4.3,14.46,2-.28,9.08-.38,7.69-.43.29-.24-.09-.17.9-.11,0-.35.86.13-.1.28-.77-.05,21.34-2,22.4-1.7-1.2-.17,28.18-2.13,28.17-1.89C436.84,215,410.39,202,409.43,202.36Z" fill="none" stroke="#4c4c4c" stroke-width="2.63"/><path d="M359.89,110.45c1.8-.58,10.57,11.85,9.15,12.38,0-.85,20.17-23,20.36-22.37-.68.08,17.56-22.54,18.26-23,1.15.51-27.16,10.38-26.22,10.37-.75-.23-29.2,10.08-30,9.8C352.91,97.54,362,109.6,359.89,110.45Z" fill="none" stroke="#4c4c4c" stroke-width="2.63"/><path d="M132.13,88.62c.94.05-27.45-9.15-27.32-9,.17.53,20.58,22.16,20.08,21.85-.74-.08,19.84,21.75,18.44,22.19,1.07-.56,8-12.74,8.47-13,.51.09,7.7-12.18,8.52-12.32C158.91,98,132.6,88.69,132.13,88.62Z" fill="none" stroke="#4c4c4c" stroke-width="2.63"/><path d="M174.85,84.73c-.3-1.16,12-8.42,11.3-8.89.37-.56,13.08-8.86,12.52-8.16.27-.16-22.72-19.26-22.48-19,0-.3-22.12-19.34-22.19-19.83.78.32,11.41,27.5,10.57,27.67C164.39,57.09,174.34,83.57,174.85,84.73Z" fill="none" stroke="#4c4c4c" stroke-width="2.63"/><path d="M77.63,145.37c1.09.15,27,12.7,27.54,12.94-.21,0,24.7,12.36,24.91,12.5-.37-.1,4.16-14.6,3.94-14.87-1.42.36,1-14.53,2.74-14.63-.2.64-29.06,2.66-30.91,2.34C108.09,143.83,78.77,145.91,77.63,145.37Z" fill="none" stroke="#4c4c4c" stroke-width="2.63"/><path d="M246.61,54.25c.27.1-12.82-26.57-13.24-26.95.48.95-13.31-25.54-12.58-26.52-.77.56-1.83,30.34-2.29,29.35.42,0-.58,30.2-.82,30.55-.71-1.3,13.76-4.3,14.22-2.83C231.38,57.17,246.42,53.9,246.61,54.25Z" fill="none" stroke="#4c4c4c" stroke-width="2.63"/><path d="M296,59.57c-1,0-2.48-29.47-1.83-29.64-.83,0-2.58-28.93-2-28.78-.38.05-12.86,26.94-13.42,26.81-.14-.81-12.57,25.88-13.08,26.68.48-1,15.39,1.73,14.74,2.73C280.64,56.35,295.9,59.21,296,59.57Z" fill="none" stroke="#4c4c4c" stroke-width="2.63"/><path d="M338.95,84.37c-1-1.41,9.75-28.2,9.28-28.37.27-.41,8.55-27.51,9.24-27.89.24.4-22.19,19.16-21.54,19.42-.5.06-22,19.8-21.73,19.46.66-.16,12.75,8.55,12.5,8.41S338.22,83.3,338.95,84.37Z" fill="none" stroke="#4c4c4c" stroke-width="2.63"/><path d="M274.94,80.33C218.44,70,171,107.36,152.34,163.25c-.31,33.82,12.77,70.55,36.93,96.44,1-3.84,63.64-109.43,68.62-112.67-1.83,1.48,66.87,109.5,68,112.77,11.59-17.56,27-37.73,33.61-59.81C370.28,144.42,329.26,93,274.94,80.33Z" fill="none" stroke="#4c4c4c" stroke-width="2.63"/><path d="M448.64,424.52c3,.34,32.71-1.87,32.66,3.29-2.19-.58-52.07-84.09-51.88-85.33-5.14-2.66,25-3,26.52-.34-5,2.23-74.19-105.41-75.05-106.66,1.44,3.3-31.42,57.14-28.26,54.55-1.84-.87,12.8,21.18,11.9,20.21-.53,1.77-18.79.93-29.65-1.37,3.71,3.87.44,2.74-2.53,4.06,20.54,28.11,69.9,104.57,67.2,100.8-2.11-1.16-32.17-.91-41,1.1,10.59,18.41,44.29,67.45,55.15,92.73,6.14-.74,89.6-1.66,91-1.07C500.31,503,446.31,426.77,448.64,424.52Z" fill="none" stroke="#4c4c4c" stroke-width="2.63"/><path d="M157.93,306.5c-2.27,5.41,15.91-20.34,18-25.76-3.1,5.65-39.06-48.84-38.14-50.77.39,2.55-71.22,108.85-71.07,109.37-2.77-.24,22.88-.39,22.61-3.63,4.24,3.18-57.32,86.14-55,87.34-.81,2.65,36.41.8,33,2,3.41-1.16-54.06,80.19-60,84.8,5.13-2.77,101.49-3.84,100.83-2.51,11.67-25.73,46.35-72.29,57.38-90-11.68-3.07-41.49-.2-39.43-3.7-3.82-.61,47.29-82.59,63.49-104.82C181.12,308,157.9,308.1,157.93,306.5Z" fill="none" stroke="#4c4c4c" stroke-width="2.63"/><path d="M402.15,509.05c-5-4.54-64.18-101.58-68.49-106-4.5,4.54,35.93,1.2,45.47,5.56-6.71-7.62-71.53-106.38-72.4-110,6.73.06,30.07,1.2,30.54,2.6,1.74-1-81.55-134-78.64-133.72.2,5.55-88.92,132.59-88,132.92-1.26-2.05,33.6.55,37.77-1.36-.15,2.16-73.71,102.27-74.47,108.87,6.24-5.75,43.48-7.11,43.11-3.52-2.47,1.59-63.65,103.2-68.65,106.32C112.68,506.86,395.32,506.44,402.15,509.05Z" fill="none" stroke="#4c4c4c" stroke-width="2.63"/></svg>